<?xml version="1.0" standalone="no"?>
<!DOCTYPE svg PUBLIC "-//W3C//DTD SVG 20010904//EN"
 "http://www.w3.org/TR/2001/REC-SVG-20010904/DTD/svg10.dtd">
<svg version="1.0" xmlns="http://www.w3.org/2000/svg"
 width="512.000000pt" height="512.000000pt" viewBox="0 0 512.000000 512.000000"
 preserveAspectRatio="xMidYMid meet">
<metadata>
Created by potrace 1.14, written by Peter Selinger 2001-2017
</metadata>
<g transform="translate(0.000000,512.000000) scale(0.100000,-0.100000)"
fill="#000000" stroke="none">
<path d="M640 5040 l0 -80 -160 0 -160 0 0 -80 0 -80 -80 0 -80 0 0 -160 0
-160 -80 0 -80 0 0 -1920 0 -1920 80 0 80 0 0 -160 0 -160 80 0 80 0 0 -80 0
-80 160 0 160 0 0 -80 0 -80 1920 0 1920 0 0 80 0 80 160 0 160 0 0 80 0 80
80 0 80 0 0 160 0 160 80 0 80 0 0 1920 0 1920 -80 0 -80 0 0 160 0 160 -80 0
-80 0 0 80 0 80 -160 0 -160 0 0 80 0 80 -1920 0 -1920 0 0 -80z m3520 -640
l0 -80 80 0 80 0 0 -80 0 -80 80 0 80 0 0 -1600 0 -1600 -80 0 -80 0 0 -80 0
-80 -80 0 -80 0 0 -80 0 -80 -1600 0 -1600 0 0 80 0 80 -80 0 -80 0 0 80 0 80
-80 0 -80 0 0 1600 0 1600 80 0 80 0 0 80 0 80 80 0 80 0 0 80 0 80 1600 0
1600 0 0 -80z"/>
<path d="M1920 3600 l0 -80 -80 0 -80 0 0 -960 0 -960 80 0 80 0 0 -80 0 -80
640 0 640 0 0 80 0 80 80 0 80 0 0 160 0 160 -480 0 -480 0 0 80 0 80 -80 0
-80 0 0 160 0 160 400 0 400 0 0 80 0 80 80 0 80 0 0 80 0 80 -480 0 -480 0 0
160 0 160 80 0 80 0 0 80 0 80 480 0 480 0 0 160 0 160 -80 0 -80 0 0 80 0 80
-640 0 -640 0 0 -80z"/>
</g>
</svg>
